<svg width="32" height="32" fill="none" xmlns="http://www.w3.org/2000/svg"><path fill-rule="evenodd" clip-rule="evenodd" d="M32 16c0 2.6-.6 5-1.7 7.1H17c2.5-3.3 5-7.4 5-11.5 0-5.4-4-9.9-9.6-11.2A16 16 0 0 1 32 16Zm-14-4.4c0-4.5-4-8-9-8C2.3 3.6 0 11 0 16a16 16 0 0 0 28 10.7H9l1.1-1.3c3.5-3.9 7.9-8.8 7.9-13.8Z" fill="#7859CF"/><path fill-rule="evenodd" clip-rule="evenodd" d="M32 16c0 2.6-.6 5-1.7 7.1H17c2.5-3.3 5-7.4 5-11.5 0-5.4-4-9.9-9.6-11.2A16 16 0 0 1 32 16Zm-14-4.4c0-4.5-4-8-9-8C2.3 3.6 0 11 0 16a16 16 0 0 0 28 10.7H9l1.1-1.3c3.5-3.9 7.9-8.8 7.9-13.8Z" fill="#7859CF"/></svg>