<svg width="38" height="50" viewBox="0 0 38 50" fill="none" xmlns="http://www.w3.org/2000/svg"><ellipse cx="19" cy="48.5" rx="8" ry="1.5" fill="#7859CF" fill-opacity=".3"/><path d="M38 20c0 15-19 24-19 24S0 35 0 20C0 9 8.5 0 19 0s19 9 19 20Z" fill="#7859CF"/><path fill-rule="evenodd" clip-rule="evenodd" d="M19 36c8.3 0 15-7.2 15-16S27.3 4 19 4 4 11.2 4 20s6.7 16 15 16Zm9.9-10.7C29.6 23.7 30 22 30 20c0-6.6-5-12-11-12-.8 0-1.7.1-2.5.3 3.8 1 6.6 4.4 6.6 8.4 0 3-1.7 6.1-3.4 8.6h9.2ZM14.2 10.7c3.4 0 6.2 2.7 6.2 6 0 3.8-3 7.4-5.5 10.4l-.7.9h13c-2 2.5-5 4-8.2 4-6 0-11-5.4-11-12 0-3.7 1.6-9.3 6.2-9.3Z" fill="#fff"/></svg>
